<svg version="1.1" xmlns="http://www.w3.org/2000/svg" viewBox="0 0 385.34 107.897">
<g>
	<path fill="#E55050" d="M40.041,43.966c-0.299-2.28-1.068-4.336-2.304-6.169c-1.8-2.467-4.592-3.701-8.376-3.701
		c-5.397,0-9.089,2.673-11.075,8.02c-1.05,2.834-1.574,6.601-1.574,11.299c0,4.476,0.524,8.074,1.574,10.796
		c1.911,5.085,5.509,7.627,10.793,7.627c3.748,0,6.409-1.01,7.983-3.028s2.53-4.636,2.867-7.851h16.319
		c-0.375,4.861-2.133,9.459-5.276,13.795c-5.016,6.992-12.444,10.487-22.286,10.487c-9.843,0-17.084-2.916-21.725-8.749
		C2.32,70.66,0,63.098,0,53.807C0,43.321,2.563,35.162,7.69,29.33c5.127-5.833,12.2-8.749,21.22-8.749
		c7.671,0,13.949,1.72,18.833,5.159c4.883,3.44,7.774,9.515,8.673,18.226H40.041z"/>
	<path fill="#EA7368" d="M117.18,75.688c-5.159,6.368-12.992,9.553-23.498,9.553c-10.506,0-18.338-3.185-23.497-9.553
		c-5.16-6.369-7.739-14.036-7.739-23.002c0-8.815,2.58-16.454,7.739-22.917c5.159-6.462,12.991-9.694,23.497-9.694
		c10.505,0,18.338,3.232,23.498,9.694c5.159,6.462,7.739,14.102,7.739,22.917C124.919,61.652,122.339,69.319,117.18,75.688z
		 M104.394,66.854c2.504-3.322,3.757-8.044,3.757-14.168c0-6.122-1.253-10.835-3.757-14.139c-2.505-3.303-6.094-4.956-10.767-4.956
		c-4.674,0-8.272,1.653-10.795,4.956c-2.524,3.304-3.786,8.017-3.786,14.139c0,6.124,1.262,10.846,3.786,14.168
		c2.523,3.323,6.121,4.983,10.795,4.983C98.299,71.838,101.888,70.178,104.394,66.854z"/>
	<path fill="#ED9A86" d="M146.936,83.166h-15.983V0.504h15.983V83.166z"/>
	<path fill="#EDCE47" d="M180.994,45.985c2.975-0.374,5.102-0.841,6.383-1.402c2.297-0.972,3.446-2.486,3.446-4.542
		c0-2.504-0.881-4.234-2.644-5.187c-1.762-0.954-4.349-1.43-7.759-1.43c-3.828,0-6.538,0.935-8.129,2.804
		c-1.137,1.384-1.896,3.253-2.274,5.608h-15.422c0.337-5.346,1.839-9.739,4.506-13.179c4.243-5.384,11.527-8.076,21.854-8.076
		c6.721,0,12.69,1.328,17.91,3.981c5.219,2.655,7.828,7.665,7.828,15.03v28.04c0,1.944,0.037,4.3,0.112,7.066
		c0.112,2.094,0.43,3.515,0.954,4.262c0.522,0.748,1.308,1.365,2.354,1.851v2.355H192.73c-0.486-1.233-0.823-2.393-1.009-3.477
		c-0.188-1.084-0.337-2.318-0.449-3.701c-2.219,2.393-4.776,4.43-7.672,6.112c-3.459,1.981-7.371,2.972-11.733,2.972
		c-5.566,0-10.163-1.579-13.791-4.738c-3.629-3.159-5.443-7.636-5.443-13.431c0-7.515,2.919-12.955,8.756-16.32
		c3.202-1.831,7.91-3.14,14.125-3.925L180.994,45.985z M190.767,53.444c-1.023,0.636-2.056,1.149-3.098,1.542
		c-1.043,0.393-2.473,0.757-4.292,1.094l-3.638,0.673c-3.41,0.599-5.859,1.328-7.346,2.187c-2.518,1.458-3.776,3.721-3.776,6.786
		c0,2.729,0.769,4.701,2.306,5.916c1.537,1.216,3.407,1.822,5.609,1.822c3.493,0,6.709-1.009,9.652-3.028
		c2.942-2.019,4.47-5.7,4.583-11.047V53.444z"/>
	<path fill="#B0DC86" d="M251.169,20.609c0.205,0.02,0.663,0.047,1.374,0.084v16.375c-1.01-0.112-1.907-0.187-2.692-0.224
		c-0.785-0.037-1.421-0.056-1.906-0.056c-6.431,0-10.749,2.094-12.954,6.281c-1.234,2.355-1.852,5.982-1.852,10.879v29.218h-16.095
		V22.039h15.254v10.655c2.468-4.075,4.617-6.86,6.449-8.356c2.99-2.504,6.879-3.757,11.665-3.757
		C250.711,20.581,250.963,20.591,251.169,20.609z"/>
	<path fill="#86DC89" d="M277.191,14.749h-16.207V0h16.207V14.749z M260.984,22.039h16.207v61.127h-16.207V22.039z"/>
	<path fill="#72D0BA" d="M285.24,33.984V22.6h8.524V5.552h15.814V22.6h9.926v11.384h-9.926v32.302c0,2.505,0.316,4.065,0.953,4.683
		c0.635,0.617,2.579,0.925,5.832,0.925c0.485,0,1-0.009,1.542-0.027s1.074-0.047,1.599-0.084v11.944l-7.57,0.28
		c-7.553,0.262-12.712-1.046-15.479-3.925c-1.795-1.832-2.691-4.655-2.691-8.469V33.984H285.24z"/>
	<path fill="#68C6D7" d="M333.327,94.887l2.019,0.112c1.57,0.074,3.065,0.019,4.486-0.168c1.421-0.188,2.617-0.617,3.59-1.29
		c0.934-0.637,1.803-1.963,2.607-3.981c0.804-2.02,1.149-3.253,1.038-3.702l-22.461-63.818h17.777l13.347,45.088l12.618-45.088
		h16.992l-20.956,60.117c-4.05,11.59-7.254,18.777-9.611,21.563c-2.358,2.784-7.074,4.178-14.148,4.178
		c-1.422,0-2.563-0.01-3.424-0.028c-0.861-0.02-2.153-0.084-3.874-0.196V94.887z"/>
</g>
</svg>
