<?xml version="1.0" encoding="utf-8"?>
<!-- Generator: Adobe Illustrator 16.2.0, SVG Export Plug-In . SVG Version: 6.00 Build 0)  -->
<!DOCTYPE svg PUBLIC "-//W3C//DTD SVG 1.1//EN" "http://www.w3.org/Graphics/SVG/1.1/DTD/svg11.dtd">
<svg version="1.1" id="Layer_1" xmlns="http://www.w3.org/2000/svg" xmlns:xlink="http://www.w3.org/1999/xlink" x="0px" y="0px"
	 width="600px" height="200px" viewBox="0 0 600 200" enable-background="new 0 0 600 200" xml:space="preserve">
<path fill="#4B9EFD" d="M15,0C6.716,0,0,6.715,0,15s6.716,15,15,15s15-6.715,15-15S23.284,0,15,0z M21.483,11.999
	c0.278,1.684-0.025,4.352-2.918,7.329c-4.929,5.075-11.604,1.1-11.604,1.1c3.112,0.422,4.748-1.398,4.748-1.398
	s-6.104-3.498-3.484-9.541c0,0,1.904,3.017,6.757,3.31c-0.048-0.216-0.069-0.44-0.069-0.673c0-1.795,1.451-3.249,3.25-3.249
	c0.917,0,1.742,0.215,2.334,0.827C21.639,9.569,22.6,9.375,22.6,9.375h0.439C23.04,9.375,22.3,11.507,21.483,11.999z"/>
<path fill="#3D5B98" d="M45,0c-8.285,0-15,6.716-15,15c0,8.285,6.715,15,15,15s15-6.715,15-15C60,6.716,53.285,0,45,0z
	 M48.356,14.99h-2.86L45.487,23h-3v-8h-2l-0.005-2.998h1.98V9.747c0-2.009,1.056-3.853,4.044-3.853c1.211,0,1.998,0.115,1.998,0.115
	l-0.01,2.973c0,0-0.91-0.006-1.908-0.006c-1.075,0-1.095,0.497-1.095,1.32v1.708h3.007L48.356,14.99z"/>
<path fill="#231F20" d="M65.856,5.857c-7.811,7.811-7.81,20.473,0.002,28.284s20.475,7.812,28.284,0.002
	c7.811-7.81,7.81-20.473-0.002-28.284C86.33-1.952,73.667-1.953,65.856,5.857z M89.19,13.638l-6.363,6.364l6.363,6.365l-2.829,2.829
	l-6.363-6.365l-6.365,6.365l-2.828-2.829l6.364-6.365l-6.364-6.364l2.828-2.829l6.365,6.365l6.363-6.364L89.19,13.638z"/>
<path d="M115,29.999c8.284,0,15-6.715,15-14.999c0-8.283-6.716-15-15-15c-8.285,0-15,6.717-15,15
	C100,23.284,106.716,29.999,115,29.999z M117.554,6.652l1.738,1.738l-6.608,6.608l6.608,6.609l-1.738,1.739l-8.349-8.349
	L117.554,6.652z"/>
<path d="M145,0c-8.284,0-15,6.715-15,14.999c0,8.283,6.716,15,15,15c8.285,0,15-6.717,15-15C160,6.715,153.285,0,145,0z
	 M142.446,23.347l-1.739-1.738L147.316,15l-6.609-6.609l1.739-1.739L150.794,15L142.446,23.347z"/>
<path d="M175,0c-8.285,0-15,6.716-15,15s6.715,15,15,15s15-6.716,15-15S183.285,0,175,0z M174.003,21h-5.001v-5h5.001V21z
	 M174.003,13.999h-5.001v-5h5.001V13.999z M181.005,21h-5.001v-5h5.001V21z M181.005,13.999h-5.001v-5h5.001V13.999z"/>
<path d="M205,0c-8.284,0-15,6.715-15,15s6.715,15,15,15s15-6.715,15-15S213.284,0,205,0z M206,22h-2V12h2V22z M206,10h-2V8h2V10z"/>
<g id="layer1">
	<polygon fill="#FFFFFF" points="271.63,100 220,65.81 230.133,50.472 264.879,73.482 303.771,0 320,8.61 	"/>
</g>
</svg>
